# xmcd
#
# Track frame offsets:
#	150
#	10218
#	22837
#	35853
#	47395
#	59030
#	70606
#	82831
#	93207
#	105317
#	118763
#	132397
#
# Disc length: 1934 seconds
#
# Revision: 1
# Processed by: cddbd v1.4PL0 Copyright (c) Steve Scherf et al.
# Submitted via: audiograbber 1.80.04
#
DISCID=90078c0c
DTITLE=John Lee Hooker - I'm John Lee Hooker
DYEAR=1959
DGENRE=Blues
TTITLE0=Dimples
TTITLE1=Hobo Blues
TTITLE2=I'm So Excited
TTITLE3=I Love You Honey
TTITLE4=Boogie Chillun
TTITLE5=Little Wheel
TTITLE6=I'm In The Mood
TTITLE7=Maudie
TTITLE8=Crawlin' King Snake
TTITLE9=Everynight
TTITLE10=Time Is Marching
TTITLE11=Baby Lee
EXTD=
EXTT0=
EXTT1=
EXTT2=
EXTT3=
EXTT4=
EXTT5=
EXTT6=
EXTT7=
EXTT8=
EXTT9=
EXTT10=
EXTT11=
PLAYORDER=
